<?xml version="1.0" encoding="UTF-8"?>
<svg xmlns="http://www.w3.org/2000/svg" xmlns:xlink="http://www.w3.org/1999/xlink" width="374.4pt" height="249.6pt" viewBox="0 0 374.4 249.6" version="1.1">
<defs>
<clipPath id="clip1">
  <path d="M 0 0 L 374.398438 0 L 374.398438 249.601563 L 0 249.601563 Z M 0 0 "/>
</clipPath>
</defs>
<g id="surface1">
<g clip-path="url(#clip1)" clip-rule="nonzero">
<path style=" stroke:none;fill-rule:evenodd;fill:rgb(0%,25.097656%,56.443787%);fill-opacity:1;" d="M 0.0234375 249.554688 L 374.46875 249.554688 L 374.46875 -0.078125 L 0.0234375 -0.078125 Z M 0.0234375 249.554688 "/>
</g>
<path style=" stroke:none;fill-rule:evenodd;fill:rgb(100%,100%,100%);fill-opacity:1;" d="M 104.617188 32.445313 L 108.054688 43.023438 L 119.175781 43.023438 L 110.179688 49.558594 L 113.617188 60.136719 L 104.617188 53.601563 L 95.621094 60.136719 L 99.058594 49.558594 L 90.0625 43.023438 L 101.183594 43.023438 Z M 104.617188 32.445313 "/>
<path style=" stroke:none;fill-rule:evenodd;fill:rgb(100%,100%,100%);fill-opacity:1;" d="M 167.390625 20.558594 L 170.828125 31.136719 L 181.949219 31.136719 L 172.953125 37.671875 L 176.386719 48.246094 L 167.390625 41.710938 L 158.394531 48.246094 L 161.828125 37.671875 L 152.832031 31.136719 L 163.953125 31.136719 Z M 167.390625 20.558594 "/>
<path style=" stroke:none;fill-rule:evenodd;fill:rgb(100%,100%,100%);fill-opacity:1;" d="M 203.128906 20.558594 L 206.566406 31.136719 L 217.6875 31.136719 L 208.691406 37.671875 L 212.125 48.246094 L 203.128906 41.710938 L 194.132813 48.246094 L 197.570313 37.671875 L 188.570313 31.136719 L 199.691406 31.136719 Z M 203.128906 20.558594 "/>
<path style=" stroke:none;fill-rule:evenodd;fill:rgb(100%,100%,100%);fill-opacity:1;" d="M 236.117188 24.683594 L 239.554688 35.257813 L 250.675781 35.257813 L 241.679688 41.796875 L 245.117188 52.371094 L 236.117188 45.835938 L 227.121094 52.371094 L 230.558594 41.796875 L 221.5625 35.257813 L 232.683594 35.257813 Z M 236.117188 24.683594 "/>
<path style=" stroke:none;fill-rule:evenodd;fill:rgb(100%,100%,100%);fill-opacity:1;" d="M 269.871094 32.445313 L 273.308594 43.023438 L 284.429688 43.023438 L 275.433594 49.558594 L 278.867188 60.136719 L 269.871094 53.601563 L 260.875 60.136719 L 264.3125 49.558594 L 255.3125 43.023438 L 266.433594 43.023438 Z M 269.871094 32.445313 "/>
<path style=" stroke:none;fill-rule:evenodd;fill:rgb(100%,100%,100%);fill-opacity:1;" d="M 135.316406 24.683594 L 138.753906 35.257813 L 149.875 35.257813 L 140.878906 41.796875 L 144.316406 52.371094 L 135.316406 45.835938 L 126.320313 52.371094 L 129.757813 41.796875 L 120.757813 35.257813 L 131.882813 35.257813 Z M 135.316406 24.683594 "/>
<path style=" stroke:none;fill-rule:evenodd;fill:rgb(92.1875%,75.389099%,35.301208%);fill-opacity:1;" d="M 184.015625 61.347656 C 186.164063 63.628906 188.109375 65.3125 188.921875 68.191406 C 189.046875 68.632813 190.035156 68.757813 189.839844 69.164063 C 189.257813 70.40625 186.777344 68.320313 186.777344 69.496094 C 186.777344 70.953125 185.246094 72.40625 187.386719 72.753906 C 189.230469 73.058594 190.957031 74.597656 192.597656 75.691406 C 193.535156 76.3125 194.550781 78.164063 195.664063 77.320313 C 196.722656 76.515625 198.375 76.164063 199.957031 76.664063 C 201.453125 77.144531 202.554688 81.074219 204.554688 78.949219 C 205.039063 78.433594 205.609375 76.164063 206.390625 76.992188 C 207.171875 77.824219 207.457031 79.53125 208.539063 79.277344 C 210.695313 78.765625 211.613281 80.433594 211.296875 81.558594 C 210.539063 84.242188 210.585938 85.371094 211.601563 88.078125 C 212.539063 90.570313 211.285156 91.902344 213.75 91.664063 C 214.847656 91.558594 214.175781 88.988281 216.199219 89.382813 C 217.738281 89.679688 218.585938 90.882813 218.957031 91.988281 C 220.132813 95.488281 217.996094 99.445313 221.71875 102.746094 C 222.050781 103.039063 221.742188 103.851563 222.023438 103.726563 C 224.296875 102.691406 225.601563 102.367188 227.539063 103.398438 C 228.910156 104.128906 228.410156 107.078125 230.605469 106.660156 C 231.8125 106.425781 233.554688 105.3125 234.898438 106.328125 C 237.902344 108.613281 233.246094 110.632813 234.285156 113.503906 C 234.835938 115.027344 232.320313 115.195313 233.058594 116.765625 C 233.25 117.175781 233.292969 117.789063 233.058594 118.394531 C 232.75 119.175781 231.136719 119.609375 231.527344 120.351563 C 232.476563 122.175781 234.15625 121.109375 237.042969 121.328125 C 240.527344 121.59375 241.304688 124.796875 245.011719 121.980469 C 246.039063 121.199219 247.828125 122.007813 248.691406 123.609375 C 249.144531 124.460938 248.320313 126.703125 249.609375 126.21875 C 253.132813 124.878906 252.695313 130.765625 254.207031 129.476563 C 255.664063 128.238281 255.554688 126.539063 256.660156 126.539063 C 258.308594 126.539063 260.054688 124.851563 261.5625 125.566406 C 263.582031 126.519531 263.914063 128.988281 265.242188 131.109375 C 265.921875 132.191406 263.894531 133.679688 263.097656 134.039063 C 261.660156 134.695313 262.324219 135.550781 260.949219 137.300781 C 259.710938 138.886719 261.871094 140.5625 261.257813 142.515625 C 260.949219 143.496094 259.703125 144.203125 258.804688 143.820313 C 258.167969 143.550781 257.832031 144.121094 257.578125 144.800781 C 257.21875 145.757813 259.316406 146.855469 258.5 147.40625 C 255.714844 149.289063 254.773438 151.539063 251.753906 153.601563 C 250.25 154.628906 253.609375 157.09375 253.289063 158.816406 C 252.902344 160.863281 251.777344 163.296875 249.914063 163.378906 C 249.171875 163.414063 247.910156 161.953125 247.769531 162.730469 C 247.03125 166.894531 243.417969 162.039063 243.171875 166.964844 C 243.09375 168.59375 243.582031 169.085938 244.09375 169.902344 C 244.433594 170.441406 245.242188 169.066406 245.625 169.574219 C 246.65625 170.945313 247.527344 172.792969 248.382813 174.464844 C 249.367188 176.382813 247.644531 177.527344 246.542969 177.398438 C 244.089844 177.109375 242.84375 180.472656 241.945313 178.371094 C 241.1875 176.59375 240.121094 173.523438 238.574219 174.136719 C 236.902344 174.804688 235.914063 174.8125 235.511719 176.746094 C 235.300781 177.753906 237.371094 179.347656 235.511719 180.007813 C 234.3125 180.429688 233.113281 177.097656 231.832031 178.046875 C 229.871094 179.511719 227.242188 181.382813 226.621094 183.59375 C 226.148438 185.273438 226.441406 186.257813 225.703125 187.828125 C 224.523438 190.335938 225.039063 191.4375 225.703125 193.042969 C 225.761719 193.1875 226.125 193.277344 226.007813 193.371094 C 224.253906 194.796875 223.3125 194.222656 221.410156 195.328125 C 219.773438 196.277344 216.066406 196.382813 216.199219 193.699219 C 216.382813 189.988281 213.390625 187.847656 212.523438 184.894531 C 211.855469 182.632813 209.734375 183.261719 208.230469 182.941406 C 206.402344 182.546875 205.4375 184.148438 204.246094 185.222656 C 201.25 187.914063 198.773438 191.011719 195.050781 190.765625 C 193.519531 190.664063 192.941406 190.921875 191.984375 191.742188 C 191 192.582031 190.214844 194.476563 189.226563 194.996094 C 187.75 195.785156 185.789063 193.632813 184.324219 196.304688 C 183.550781 197.714844 181.5625 196.144531 180.03125 198.585938 C 178.582031 200.902344 177.582031 200.847656 177.582031 203.152344 C 177.582031 205.238281 176.285156 206.746094 178.804688 209.019531 C 180.589844 210.621094 178.636719 212.007813 179.726563 214.5625 C 180.527344 216.4375 177.273438 217.496094 176.660156 219.449219 C 176.355469 220.429688 175.363281 220.035156 174.820313 220.753906 C 174.132813 221.667969 172.898438 221.804688 172.0625 222.058594 C 170.589844 222.507813 170.78125 219.378906 169.304688 220.753906 C 168.324219 221.664063 167.042969 223.679688 165.933594 223.035156 C 163.269531 221.492188 162.253906 218.128906 162.253906 215.214844 C 162.253906 213.121094 166.878906 213.3125 166.546875 210.648438 C 166.21875 208.039063 164.777344 206.066406 164.09375 203.152344 C 163.410156 200.234375 159.253906 198.933594 160.109375 195.980469 C 160.835938 193.46875 160.90625 193.148438 161.027344 191.089844 C 161.222656 187.820313 158.632813 185.785156 157.964844 182.941406 C 157.648438 181.597656 158.25 181.339844 157.351563 180.65625 C 153.957031 178.082031 151.488281 175.90625 147.847656 173.488281 C 145.199219 171.722656 143.171875 172.496094 142.945313 169.574219 C 142.863281 168.542969 141.507813 168.332031 141.105469 168.917969 C 139.003906 171.996094 138.519531 168.785156 135.894531 169.902344 C 133.320313 170.996094 133.730469 168.203125 133.136719 165.988281 C 132.832031 164.859375 133.988281 164.203125 133.75 163.054688 C 133.351563 161.144531 129.925781 160.921875 131.296875 159.46875 C 133.234375 157.40625 131.933594 155.851563 130.683594 154.90625 C 129.65625 154.121094 129.761719 153.160156 129.457031 152.292969 C 128.804688 150.441406 128.285156 148.6875 127.007813 147.734375 C 124.691406 146.011719 120.082031 144.945313 120.570313 142.191406 C 121.25 138.335938 118.617188 137.214844 120.570313 134.367188 C 121.378906 133.1875 123.425781 132.566406 123.328125 131.109375 C 123.078125 127.300781 117.679688 128.425781 116.277344 124.914063 C 116.058594 124.363281 115.886719 124.539063 115.953125 123.261719 C 116 122.324219 116.042969 121.285156 116.277344 120.023438 C 116.683594 117.878906 116.988281 117.367188 118.117188 116.765625 C 120.035156 115.742188 122.378906 116.078125 123.941406 117.742188 C 124.625 118.472656 125.605469 119.222656 126.394531 118.71875 C 127.339844 118.117188 128.304688 117.675781 128.84375 118.394531 C 130.761719 120.941406 133.355469 119.914063 135.28125 118.71875 C 137.15625 117.558594 135.589844 115.078125 135.589844 113.179688 C 135.589844 111.871094 137.125 110.714844 138.347656 110.570313 C 139.445313 110.441406 140.347656 109.839844 141.71875 110.570313 C 144.671875 112.140625 147.847656 107.3125 150.609375 110.246094 C 150.914063 110.570313 151.527344 110.894531 151.832031 110.570313 C 154 108.265625 157.742188 107.6875 158.578125 105.027344 C 159.125 103.28125 155.730469 102.371094 155.207031 100.140625 C 154.664063 97.835938 157.082031 93.804688 159.496094 94.597656 C 161.785156 95.347656 161.640625 92.96875 162.5625 91.988281 C 163.175781 91.335938 163.625 90.445313 164.398438 90.03125 C 165.53125 89.433594 166.425781 92.484375 167.464844 91.011719 C 168.289063 89.84375 169.441406 88.578125 170.222656 87.746094 C 171.613281 86.273438 168.554688 84.535156 169.609375 83.1875 C 170.230469 82.394531 171.800781 83.210938 172.371094 81.882813 C 173.335938 79.621094 169.878906 78.953125 169.609375 76.664063 C 169.175781 72.980469 164.914063 75.023438 165.320313 72.429688 C 165.714844 69.914063 162.042969 67.761719 166.546875 68.519531 C 168.175781 68.789063 170.355469 68.527344 171.757813 67.867188 C 173.339844 67.117188 174.328125 64.804688 175.433594 63.628906 C 176.804688 62.171875 178.972656 65.589844 180.339844 63.953125 C 181.625 62.414063 182.179688 61.019531 184.015625 61.347656 Z M 184.015625 61.347656 "/>
</g>
</svg>
