<svg id="svg" version="1.1" xmlns="http://www.w3.org/2000/svg" xmlns:xlink="http://www.w3.org/1999/xlink" width="400" height="266.6666666666667" viewBox="0, 0, 400,266.6666666666667"><g id="svgg"><path id="path0" d="M196.431 81.717 C 195.996 81.862,195.859 82.226,196.167 82.417 C 196.258 82.473,196.333 82.893,196.333 83.348 C 196.333 84.349,196.115 84.485,195.119 84.109 C 194.622 83.921,194.139 83.873,193.468 83.944 C 192.682 84.027,192.417 83.984,191.917 83.689 C 190.912 83.096,190.185 83.348,190.172 84.294 C 190.169 84.525,189.984 84.784,189.696 84.961 C 188.889 85.456,188.212 86.095,187.943 86.616 C 187.504 87.465,186.935 87.723,185.766 87.605 C 185.007 87.528,184.623 87.568,184.250 87.763 C 183.836 87.980,183.647 87.991,183.149 87.827 C 182.704 87.680,182.458 87.677,182.202 87.815 C 181.748 88.057,180.911 88.051,180.511 87.802 C 180.262 87.646,180.137 87.651,179.930 87.822 C 179.519 88.163,179.616 88.415,180.245 88.642 C 181.397 89.059,181.801 90.073,181.145 90.906 C 180.703 91.468,180.816 91.571,182.161 91.826 C 184.681 92.305,185.500 93.148,185.147 94.902 C 185.099 95.142,185.213 95.255,185.608 95.361 C 186.096 95.491,186.508 95.877,187.464 97.097 C 188.078 97.880,188.121 98.369,187.715 99.996 C 187.533 100.729,186.455 101.522,185.462 101.655 C 184.968 101.721,184.737 101.838,184.698 102.042 C 184.641 102.339,184.729 102.394,185.542 102.573 C 186.082 102.691,186.173 103.345,185.736 103.970 C 185.487 104.324,185.498 104.382,185.902 104.913 C 186.572 105.791,186.423 106.167,185.407 106.167 C 185.161 106.167,184.899 106.333,184.725 106.599 C 184.569 106.836,184.269 107.096,184.059 107.176 C 183.833 107.262,183.635 107.512,183.576 107.786 C 183.362 108.784,183.182 109.040,182.765 108.935 C 182.518 108.873,182.295 108.929,182.165 109.085 C 181.764 109.568,180.635 109.272,180.077 108.537 C 179.775 108.140,179.020 108.464,178.751 109.107 C 178.621 109.419,178.286 109.804,178.007 109.962 C 177.721 110.125,177.425 110.479,177.325 110.778 C 177.229 111.069,177.041 111.396,176.909 111.506 C 176.777 111.616,176.586 112.016,176.485 112.394 C 176.150 113.648,175.472 113.896,174.833 113.000 C 174.343 112.312,174.126 112.361,172.901 113.437 C 171.864 114.347,171.833 114.397,171.833 115.183 C 171.833 115.862,171.766 116.036,171.417 116.265 C 170.915 116.594,170.879 116.929,171.332 117.048 C 171.515 117.096,171.716 117.273,171.778 117.443 C 171.839 117.612,172.065 117.962,172.278 118.221 C 172.492 118.480,172.667 118.876,172.667 119.100 C 172.667 119.389,172.797 119.558,173.112 119.678 C 173.357 119.771,173.729 120.031,173.938 120.257 C 174.147 120.482,174.456 120.667,174.625 120.667 C 175.012 120.667,175.333 120.979,175.333 121.355 C 175.333 121.814,174.857 122.167,174.238 122.167 C 173.871 122.167,173.667 122.247,173.667 122.391 C 173.667 122.836,173.072 123.167,172.273 123.167 C 171.327 123.167,170.402 123.524,170.264 123.943 C 170.209 124.112,169.808 124.475,169.373 124.750 C 168.840 125.088,168.534 125.417,168.432 125.765 C 168.084 126.942,166.543 127.283,165.471 126.418 C 164.092 125.305,163.337 125.344,160.962 126.647 L 160.174 127.080 159.593 126.767 C 158.905 126.397,158.368 126.627,157.925 127.484 C 157.714 127.891,156.966 128.333,156.488 128.333 C 156.417 128.333,156.128 128.139,155.846 127.902 L 155.334 127.471 153.875 128.194 C 152.347 128.951,151.750 129.471,151.608 130.167 C 151.491 130.742,150.587 131.621,149.976 131.755 C 149.556 131.848,149.487 131.927,149.572 132.225 C 149.897 133.361,149.896 133.556,149.568 133.463 C 149.393 133.414,149.144 133.346,149.015 133.312 C 148.855 133.270,148.693 133.542,148.507 134.167 L 148.235 135.083 146.909 135.106 C 146.180 135.118,145.161 135.152,144.644 135.182 C 143.842 135.229,143.603 135.169,142.996 134.767 C 142.416 134.383,142.172 134.316,141.653 134.400 C 141.129 134.483,140.942 134.431,140.582 134.097 C 140.343 133.875,139.638 133.539,139.017 133.350 C 138.395 133.161,137.693 132.855,137.457 132.669 C 136.917 132.244,136.403 132.406,135.418 133.314 C 134.896 133.795,134.541 133.972,133.924 134.056 C 133.258 134.148,133.017 134.282,132.563 134.812 C 132.241 135.188,131.805 135.497,131.513 135.556 C 130.784 135.702,130.397 136.488,130.836 136.931 C 131.278 137.376,131.089 138.884,130.582 138.966 C 129.860 139.082,129.806 139.137,130.020 139.539 C 130.131 139.747,130.319 139.992,130.438 140.083 C 130.557 140.175,130.751 140.550,130.869 140.917 C 131.042 141.455,131.171 141.593,131.542 141.636 C 131.853 141.672,132.000 141.785,132.000 141.989 C 132.000 142.350,132.829 142.534,134.593 142.564 C 135.713 142.582,135.808 142.616,136.593 143.268 C 137.046 143.644,137.829 144.084,138.333 144.247 C 138.837 144.409,139.400 144.676,139.583 144.840 C 139.767 145.003,140.097 145.163,140.316 145.194 C 141.200 145.318,141.145 145.760,140.121 146.735 C 139.596 147.235,139.167 147.749,139.167 147.875 C 139.167 148.002,138.904 148.338,138.583 148.622 C 137.825 149.293,137.767 150.393,138.424 151.650 C 139.050 152.847,139.097 153.450,138.660 154.649 L 138.284 155.680 138.725 156.141 C 138.968 156.394,139.167 156.682,139.167 156.780 C 139.167 156.879,139.287 157.059,139.434 157.181 C 139.581 157.303,139.763 157.565,139.838 157.763 C 139.918 157.974,140.414 158.342,141.029 158.648 C 144.916 160.583,145.667 161.069,145.667 161.651 C 145.667 161.932,145.883 162.326,146.250 162.716 C 146.680 163.171,146.833 163.483,146.833 163.897 C 146.833 164.348,146.953 164.552,147.432 164.917 C 148.030 165.373,148.082 165.598,147.762 166.353 C 147.680 166.548,147.812 166.720,148.241 166.972 C 148.567 167.165,148.833 167.428,148.833 167.558 C 148.833 167.688,149.077 167.980,149.376 168.207 C 150.487 169.055,150.720 170.625,149.806 171.097 C 148.996 171.517,148.824 172.667,149.573 172.667 C 149.682 172.667,149.991 172.898,150.260 173.182 C 150.530 173.465,150.947 173.800,151.189 173.926 C 151.961 174.329,152.286 176.935,151.626 177.433 L 151.224 177.736 151.612 178.308 C 151.825 178.623,152.000 179.128,152.000 179.432 C 152.000 180.170,152.820 180.603,153.880 180.424 C 154.267 180.359,154.813 180.267,155.095 180.221 C 155.485 180.157,155.733 180.244,156.143 180.589 C 156.641 181.008,156.700 181.021,156.978 180.770 C 157.142 180.622,157.331 180.500,157.397 180.500 C 157.463 180.500,157.794 180.313,158.131 180.083 C 158.468 179.854,158.911 179.667,159.115 179.667 C 159.587 179.667,160.833 180.840,160.833 181.284 C 160.833 181.552,161.062 181.694,161.958 181.984 C 163.678 182.541,164.205 182.852,164.385 183.417 C 164.621 184.154,164.768 184.280,165.540 184.404 C 165.926 184.465,166.356 184.615,166.496 184.735 C 166.636 184.856,167.018 184.996,167.345 185.045 C 168.412 185.208,170.318 186.416,170.660 187.147 C 170.763 187.365,171.216 187.876,171.668 188.282 C 172.251 188.807,172.521 189.192,172.600 189.611 C 172.686 190.070,172.830 190.252,173.246 190.426 C 173.902 190.700,174.672 192.141,175.156 194.000 C 175.335 194.688,175.673 195.619,175.907 196.070 C 176.142 196.521,176.333 197.062,176.333 197.272 C 176.333 197.483,176.558 197.911,176.833 198.225 C 177.152 198.588,177.333 198.976,177.333 199.297 C 177.333 199.573,177.520 200.126,177.748 200.525 C 178.249 201.401,178.265 201.738,177.843 202.525 C 177.560 203.053,177.549 203.169,177.754 203.440 C 178.099 203.895,178.051 204.366,177.597 204.982 L 177.193 205.529 177.692 206.639 C 178.070 207.483,178.454 207.992,179.290 208.757 L 180.390 209.764 180.466 210.840 C 180.510 211.461,180.662 212.093,180.824 212.333 C 181.189 212.872,181.500 213.965,181.500 214.708 C 181.500 215.147,181.687 215.534,182.250 216.259 C 183.650 218.063,182.673 221.806,180.796 221.828 C 180.466 221.832,180.273 221.966,180.092 222.316 C 179.955 222.582,179.643 222.944,179.399 223.122 L 178.956 223.444 179.580 224.826 C 179.923 225.586,180.242 226.493,180.289 226.842 C 180.354 227.325,180.621 227.747,181.409 228.608 L 182.445 229.739 183.116 229.207 C 183.485 228.914,183.981 228.421,184.218 228.110 C 185.017 227.064,186.605 227.204,187.210 228.375 C 187.387 228.719,187.632 229.000,187.754 229.000 C 188.116 229.000,190.214 227.850,190.698 227.386 C 190.945 227.150,191.255 226.998,191.387 227.049 C 191.563 227.116,191.656 226.966,191.732 226.495 C 191.802 226.057,191.976 225.751,192.271 225.549 C 192.886 225.128,193.339 224.655,193.917 223.834 C 194.192 223.443,194.668 223.016,194.976 222.885 L 195.535 222.647 194.434 221.594 C 193.194 220.408,193.028 219.874,193.750 219.401 C 194.374 218.992,193.997 217.515,192.985 216.410 C 192.707 216.106,192.680 215.824,192.726 213.720 L 192.777 211.370 193.305 210.702 C 193.845 210.021,193.963 209.600,193.667 209.417 C 193.287 209.182,193.498 208.539,194.042 208.277 C 194.675 207.972,195.500 206.988,195.500 206.538 C 195.500 205.826,196.170 205.504,197.784 205.438 C 199.520 205.368,199.541 205.359,200.092 204.486 L 200.504 203.833 201.828 203.833 C 202.555 203.833,203.342 203.920,203.576 204.027 C 204.125 204.277,205.938 202.685,206.405 201.542 C 206.596 201.073,206.797 200.833,206.998 200.833 C 207.165 200.833,207.617 200.570,208.001 200.249 C 208.660 199.699,208.766 199.666,209.809 199.695 C 211.101 199.730,211.748 199.569,213.177 198.855 C 213.750 198.568,214.442 198.333,214.713 198.333 C 215.068 198.333,215.397 198.142,215.891 197.648 C 216.268 197.271,216.750 196.897,216.962 196.816 C 217.174 196.736,217.475 196.430,217.632 196.137 C 218.031 195.391,218.805 194.699,219.382 194.573 C 219.656 194.512,220.313 194.034,220.878 193.483 C 221.959 192.428,222.725 192.200,223.333 192.750 C 223.485 192.887,224.352 193.111,225.263 193.247 C 227.012 193.510,227.333 193.699,227.333 194.464 C 227.333 194.684,227.483 195.055,227.667 195.288 C 227.850 195.521,228.000 195.853,228.000 196.026 C 228.000 196.199,228.290 196.658,228.644 197.045 C 228.998 197.433,229.374 198.019,229.481 198.348 C 229.587 198.677,230.010 199.339,230.421 199.820 C 231.206 200.740,231.326 201.225,230.988 202.114 C 230.693 202.891,231.400 204.161,232.130 204.164 C 232.431 204.166,232.927 204.271,233.233 204.399 C 233.574 204.541,233.877 204.574,234.019 204.485 C 234.146 204.404,234.502 204.337,234.809 204.336 C 235.160 204.334,235.553 204.178,235.864 203.917 C 236.136 203.688,236.540 203.500,236.761 203.500 C 237.064 203.500,237.223 203.354,237.411 202.905 C 237.751 202.092,238.418 202.127,238.415 202.958 C 238.413 203.535,238.612 203.630,239.182 203.325 C 239.495 203.158,239.497 203.127,239.231 202.617 C 239.078 202.323,238.878 201.936,238.786 201.756 C 238.257 200.717,237.809 199.922,237.632 199.708 C 237.470 199.513,237.483 199.425,237.696 199.269 C 238.434 198.729,239.149 197.522,239.059 196.968 C 238.983 196.498,239.068 196.302,239.622 195.666 C 240.425 194.744,240.543 194.443,240.305 193.922 C 240.040 193.340,240.510 192.621,241.063 192.760 C 241.377 192.839,241.488 192.764,241.655 192.362 C 241.882 191.813,242.453 191.221,243.032 190.932 C 243.240 190.828,243.495 190.573,243.599 190.365 C 243.702 190.158,243.940 189.822,244.127 189.619 C 244.314 189.416,244.494 189.100,244.528 188.917 C 244.589 188.582,244.708 188.554,246.392 188.476 C 246.770 188.458,247.047 188.647,247.736 189.394 C 249.190 190.969,250.384 190.136,249.095 188.446 C 248.570 187.758,248.561 187.513,249.042 186.899 C 249.268 186.610,249.417 186.189,249.417 185.835 C 249.417 185.175,249.932 184.934,250.327 185.409 C 250.695 185.852,251.279 185.729,251.475 185.167 C 251.711 184.491,252.648 184.442,253.068 185.083 C 253.292 185.425,253.475 185.500,254.086 185.500 C 254.858 185.500,255.829 186.416,255.836 187.150 C 255.848 188.399,256.594 189.213,257.252 188.695 C 257.743 188.309,258.247 188.226,258.418 188.503 C 258.483 188.607,258.689 188.542,258.951 188.336 C 259.186 188.151,259.465 188.000,259.572 188.000 C 259.679 188.000,260.040 187.719,260.375 187.375 L 260.985 186.750 260.662 186.030 C 260.484 185.634,260.076 185.003,259.755 184.628 C 259.424 184.241,259.130 183.687,259.076 183.348 C 258.831 181.810,258.764 181.742,258.132 182.393 C 257.416 183.129,256.500 183.046,256.500 182.244 C 256.500 181.744,256.278 181.277,255.725 180.612 C 255.220 180.005,255.230 179.532,255.766 178.742 C 256.162 178.159,256.189 178.012,256.084 177.030 C 255.928 175.575,256.336 175.270,257.325 176.102 C 258.128 176.778,259.685 176.568,259.624 175.792 C 259.540 174.729,261.309 174.086,262.031 174.917 C 262.613 175.586,264.000 175.182,264.000 174.344 C 264.000 174.179,264.150 173.854,264.333 173.621 C 264.517 173.388,264.667 173.042,264.667 172.853 C 264.667 172.658,264.867 172.380,265.125 172.216 C 265.971 171.678,266.023 171.432,265.342 171.195 C 264.890 171.037,264.858 170.975,264.949 170.419 C 265.029 169.924,264.982 169.769,264.691 169.565 C 263.160 168.492,263.391 166.566,265.108 166.088 C 265.306 166.033,265.514 165.801,265.571 165.572 C 265.629 165.343,265.861 165.071,266.088 164.968 C 266.315 164.864,266.500 164.716,266.500 164.639 C 266.500 164.561,266.688 164.335,266.917 164.136 C 267.146 163.936,267.336 163.655,267.339 163.512 C 267.349 163.091,268.065 162.332,268.582 162.193 C 268.950 162.095,269.099 161.920,269.238 161.426 C 269.476 160.575,269.867 160.328,270.324 160.741 C 270.891 161.255,270.774 160.515,270.167 159.750 C 269.580 159.011,269.462 158.000,269.963 158.000 C 270.126 158.000,270.463 157.768,270.712 157.484 C 271.141 156.995,271.208 156.974,272.013 157.085 C 272.760 157.188,272.890 157.160,273.106 156.851 C 273.262 156.629,273.533 156.500,273.843 156.500 C 274.373 156.500,274.445 156.340,274.135 155.845 C 273.976 155.590,273.996 155.396,274.239 154.858 C 274.565 154.135,274.286 153.340,273.513 152.792 C 272.588 152.135,272.738 151.000,273.750 151.000 C 274.286 151.000,274.718 150.130,274.582 149.326 C 274.432 148.438,274.962 147.833,275.889 147.833 C 276.410 147.833,276.640 147.748,276.798 147.494 C 276.915 147.307,277.193 147.085,277.416 147.000 C 277.998 146.779,277.699 145.904,276.988 145.747 C 276.377 145.613,276.000 145.089,276.000 144.375 C 276.000 143.929,275.914 143.792,275.545 143.652 C 274.951 143.426,274.819 143.194,274.932 142.573 C 275.065 141.848,274.660 141.523,274.090 141.897 C 273.864 142.045,273.452 142.167,273.175 142.167 C 272.898 142.167,272.330 142.258,271.912 142.370 C 271.369 142.515,271.073 142.522,270.872 142.396 C 270.250 142.003,268.542 142.971,268.420 143.786 C 268.315 144.485,267.733 145.167,267.239 145.167 C 266.907 145.167,265.833 144.081,265.833 143.745 C 265.833 143.505,265.354 141.726,265.238 141.535 C 265.221 141.508,264.934 141.616,264.599 141.776 C 263.801 142.157,262.555 141.917,261.448 141.170 C 260.531 140.552,260.536 140.571,261.119 139.963 C 261.744 139.310,261.408 138.723,260.178 138.322 C 259.709 138.169,259.186 137.918,259.015 137.763 C 258.722 137.498,258.687 137.505,258.394 137.874 C 257.937 138.450,257.739 138.526,257.263 138.309 C 256.910 138.148,256.781 138.162,256.529 138.390 C 256.072 138.804,255.355 138.739,254.970 138.250 C 254.736 137.952,254.482 137.833,254.077 137.833 C 253.682 137.833,253.458 137.733,253.333 137.500 C 253.235 137.317,253.053 137.167,252.929 137.167 C 252.805 137.167,252.527 137.020,252.310 136.840 L 251.917 136.514 251.471 137.047 L 251.026 137.581 250.388 137.221 C 250.037 137.024,249.650 136.663,249.527 136.419 C 249.362 136.092,249.231 136.010,249.027 136.105 C 248.875 136.176,248.188 136.263,247.500 136.297 C 246.565 136.344,246.164 136.439,245.911 136.675 C 245.579 136.984,245.562 136.984,245.041 136.667 C 244.222 136.169,244.092 135.076,244.829 134.883 C 245.008 134.836,245.196 134.672,245.244 134.518 C 245.293 134.364,245.558 134.106,245.833 133.943 C 246.397 133.610,246.443 133.465,246.083 133.167 C 245.762 132.900,245.763 132.432,246.088 132.163 C 246.315 131.974,246.315 131.923,246.088 131.671 C 245.551 131.078,246.147 130.000,247.012 130.000 C 247.583 130.000,247.742 128.885,247.243 128.386 C 247.012 128.155,247.012 128.090,247.243 127.737 C 247.384 127.521,247.500 127.249,247.501 127.131 C 247.504 126.367,247.866 125.667,248.258 125.667 C 248.597 125.667,248.667 125.585,248.667 125.188 C 248.667 124.924,248.711 124.486,248.765 124.215 C 248.989 123.098,247.367 122.773,245.723 123.604 L 244.858 124.042 244.304 123.702 C 243.958 123.489,243.586 123.393,243.315 123.445 C 242.983 123.510,242.860 123.453,242.796 123.207 C 242.744 123.008,242.510 122.844,242.189 122.779 C 241.656 122.673,241.516 122.329,241.814 121.860 C 242.225 121.211,241.310 120.336,240.219 120.335 C 239.652 120.334,238.985 120.256,238.737 120.162 C 238.137 119.933,237.242 120.230,236.884 120.776 C 236.388 121.534,235.333 121.014,235.333 120.011 C 235.333 119.335,235.147 119.036,234.462 118.612 C 234.056 118.360,233.333 117.125,233.333 116.682 C 233.333 116.588,233.122 116.265,232.864 115.964 C 232.073 115.042,231.888 114.393,232.290 113.952 C 232.738 113.462,232.905 111.870,232.551 111.470 C 232.415 111.316,232.223 110.623,232.126 109.929 C 232.029 109.235,231.884 108.667,231.804 108.667 C 231.724 108.667,231.590 108.486,231.506 108.265 C 231.410 108.013,231.168 107.824,230.855 107.755 C 230.581 107.695,230.267 107.538,230.158 107.406 C 229.659 106.806,228.909 107.761,229.096 108.757 C 229.197 109.300,228.458 110.012,227.814 109.993 C 227.025 109.970,225.935 108.400,226.425 107.993 C 226.888 107.609,226.671 106.766,226.083 106.666 C 225.608 106.585,225.578 106.533,225.482 105.582 C 225.353 104.320,224.898 102.943,224.485 102.570 C 224.030 102.158,224.075 101.301,224.583 100.697 C 225.087 100.098,225.103 99.837,224.667 99.333 C 224.476 99.114,224.333 98.710,224.333 98.391 C 224.333 97.843,223.989 97.613,223.750 98.000 C 223.323 98.691,221.167 97.765,221.167 96.890 C 221.167 96.403,220.170 95.765,219.922 96.094 C 219.621 96.491,219.615 96.588,219.865 96.989 C 220.125 97.406,219.792 97.833,219.208 97.833 C 218.978 97.833,218.534 97.991,218.223 98.183 C 217.501 98.630,216.945 98.505,216.668 97.835 C 216.553 97.559,216.360 97.333,216.238 97.333 C 216.116 97.333,215.742 97.005,215.407 96.604 C 214.587 95.623,213.259 95.125,212.605 95.554 C 212.364 95.712,211.849 95.833,211.423 95.833 C 210.862 95.833,210.667 95.898,210.667 96.083 C 210.667 96.221,210.517 96.483,210.333 96.667 C 209.750 97.250,208.333 97.013,208.333 96.332 C 208.333 96.108,208.168 95.967,207.792 95.870 C 207.407 95.772,207.171 95.565,206.976 95.157 C 206.532 94.224,206.156 93.970,205.558 94.196 C 205.057 94.385,203.167 92.917,203.167 92.339 C 203.167 92.224,202.842 92.202,202.222 92.275 C 201.329 92.380,201.257 92.361,200.910 91.925 C 200.550 91.474,200.533 91.470,200.105 91.751 C 199.698 92.018,199.637 92.019,199.253 91.767 C 198.372 91.190,198.534 90.124,199.517 90.029 C 200.593 89.925,200.946 89.320,200.167 88.917 C 199.595 88.621,199.505 88.098,199.982 87.843 C 200.602 87.511,202.096 87.440,202.649 87.716 C 203.246 88.014,203.292 87.919,202.833 87.333 C 202.654 87.104,202.506 86.754,202.504 86.555 C 202.498 85.964,202.320 85.668,201.813 85.406 C 201.533 85.261,201.333 85.023,201.333 84.832 C 201.333 84.624,201.183 84.469,200.917 84.402 C 200.625 84.329,200.500 84.183,200.500 83.918 C 200.500 83.681,200.282 83.373,199.917 83.095 C 199.596 82.850,199.333 82.550,199.333 82.429 C 199.333 81.846,197.438 81.382,196.431 81.717 " stroke="none" fill="#cfa545" fill-rule="evenodd"></path><path id="path1" d="M194.417 2.663 C 193.408 2.735,191.758 2.842,190.750 2.902 C 181.336 3.460,166.946 6.289,158.083 9.324 C 157.350 9.576,156.375 9.897,155.917 10.039 C 154.597 10.448,152.049 11.384,149.167 12.520 C 145.819 13.839,139.778 16.599,136.583 18.270 C 136.125 18.510,135.615 18.775,135.451 18.859 C 134.635 19.277,133.219 20.070,131.333 21.164 C 130.188 21.829,128.987 22.523,128.667 22.706 C 128.346 22.889,127.884 23.180,127.641 23.353 C 127.398 23.525,127.160 23.667,127.113 23.667 C 127.067 23.667,126.434 24.060,125.706 24.542 C 124.979 25.023,124.266 25.492,124.122 25.583 C 123.977 25.675,123.096 26.275,122.163 26.917 C 121.230 27.558,120.301 28.196,120.098 28.333 C 118.396 29.488,113.504 33.276,111.833 34.732 C 111.696 34.852,111.058 35.387,110.417 35.921 C 104.523 40.826,96.629 49.120,91.675 55.612 C 90.848 56.696,90.002 57.802,89.794 58.068 C 89.121 58.934,87.898 60.696,86.140 63.338 C 84.239 66.193,84.354 66.012,83.165 68.000 C 82.699 68.779,82.249 69.529,82.165 69.667 C 81.105 71.402,79.224 74.874,77.740 77.833 C 76.496 80.314,74.500 84.768,74.500 85.064 C 74.500 85.201,74.436 85.353,74.358 85.401 C 74.280 85.450,74.088 85.848,73.930 86.286 C 73.773 86.725,73.502 87.421,73.328 87.833 C 73.028 88.541,72.227 90.743,71.174 93.750 C 68.865 100.347,66.233 111.438,65.658 117.001 C 65.569 117.861,65.426 119.019,65.340 119.574 C 64.287 126.365,64.336 145.439,65.419 150.279 C 65.464 150.479,65.571 151.328,65.658 152.165 C 66.252 157.909,68.917 169.133,71.181 175.433 C 71.448 176.176,71.666 176.851,71.666 176.933 C 71.665 177.016,71.898 177.683,72.184 178.417 C 72.469 179.150,72.961 180.425,73.276 181.250 C 74.574 184.646,75.486 186.706,77.815 191.500 C 79.040 194.022,80.749 197.247,81.183 197.856 C 81.357 198.101,81.503 198.365,81.507 198.442 C 81.511 198.520,81.845 199.108,82.250 199.750 C 82.655 200.392,83.225 201.329,83.517 201.833 C 83.809 202.338,84.543 203.500,85.147 204.417 C 85.752 205.333,86.322 206.213,86.415 206.371 C 86.710 206.875,88.701 209.708,89.609 210.917 C 90.091 211.558,90.733 212.419,91.034 212.830 C 91.705 213.743,91.621 213.637,93.605 216.083 C 98.136 221.671,104.440 228.161,109.968 232.929 C 110.123 233.063,110.482 233.377,110.765 233.628 C 111.048 233.878,111.604 234.346,112.000 234.667 C 112.396 234.987,113.036 235.512,113.422 235.833 C 113.809 236.154,114.370 236.604,114.669 236.833 C 114.967 237.063,115.455 237.456,115.753 237.708 C 116.051 237.960,116.372 238.167,116.466 238.167 C 116.561 238.167,116.664 238.223,116.694 238.292 C 116.781 238.487,118.974 240.167,119.143 240.167 C 119.225 240.167,119.390 240.284,119.509 240.427 C 119.704 240.663,121.097 241.667,121.805 242.083 C 121.961 242.175,122.357 242.456,122.685 242.708 C 123.013 242.960,123.339 243.167,123.408 243.167 C 123.478 243.167,123.809 243.373,124.143 243.625 C 124.478 243.877,124.901 244.174,125.084 244.284 C 125.395 244.472,127.174 245.580,128.500 246.411 C 129.844 247.253,131.142 248.000,131.262 248.000 C 131.333 248.000,131.509 248.103,131.654 248.229 C 131.904 248.447,132.212 248.622,134.917 250.088 C 136.761 251.087,141.889 253.604,143.667 254.382 C 144.171 254.602,145.091 255.019,145.711 255.308 C 146.332 255.597,146.911 255.833,146.998 255.833 C 147.085 255.833,147.555 256.016,148.042 256.238 C 148.529 256.461,149.225 256.751,149.589 256.883 C 149.953 257.015,151.300 257.514,152.583 257.992 C 161.174 261.192,169.234 263.307,179.250 264.988 C 182.431 265.522,187.085 266.064,191.667 266.434 C 195.884 266.775,210.503 266.674,213.917 266.280 C 215.108 266.143,216.908 265.944,217.917 265.838 C 228.515 264.724,240.879 261.757,251.417 257.801 C 252.150 257.526,253.150 257.155,253.639 256.977 C 254.128 256.799,254.911 256.469,255.379 256.244 C 255.846 256.018,256.316 255.833,256.422 255.833 C 256.529 255.833,256.833 255.726,257.099 255.596 C 257.366 255.465,258.971 254.725,260.667 253.952 C 263.812 252.517,267.421 250.703,270.050 249.235 C 270.856 248.785,271.922 248.192,272.418 247.917 C 272.914 247.642,273.413 247.323,273.526 247.208 C 273.640 247.094,273.817 247.000,273.920 247.000 C 274.023 247.000,274.402 246.777,274.762 246.505 C 275.122 246.232,275.485 246.007,275.568 246.005 C 275.651 246.002,275.964 245.812,276.265 245.583 C 276.565 245.354,276.855 245.167,276.908 245.167 C 276.961 245.167,278.185 244.378,279.627 243.415 C 284.024 240.478,285.077 239.717,288.583 236.944 C 289.133 236.509,289.800 235.988,290.064 235.785 C 293.324 233.289,301.496 225.619,304.662 222.083 C 306.075 220.505,308.918 217.219,309.333 216.682 C 309.563 216.386,309.875 216.005,310.027 215.836 C 310.594 215.208,312.741 212.389,314.244 210.299 C 314.791 209.539,315.335 208.818,315.453 208.696 C 315.570 208.575,315.667 208.412,315.667 208.333 C 315.667 208.255,315.764 208.091,315.883 207.970 C 316.085 207.765,317.205 206.161,317.587 205.531 C 317.681 205.376,318.187 204.591,318.712 203.786 C 319.237 202.981,319.667 202.291,319.667 202.253 C 319.667 202.215,319.873 201.861,320.125 201.467 C 322.745 197.370,326.584 189.889,328.918 184.333 C 330.369 180.879,332.670 174.597,333.191 172.667 C 333.278 172.346,333.561 171.371,333.821 170.500 C 335.115 166.161,336.908 158.448,337.249 155.750 C 337.307 155.292,337.531 153.717,337.747 152.250 C 338.983 143.833,339.338 132.167,338.585 124.667 C 338.442 123.246,338.255 121.258,338.169 120.250 C 337.701 114.783,335.708 104.910,333.813 98.667 C 332.834 95.441,332.274 93.718,331.809 92.500 C 331.546 91.813,331.332 91.184,331.332 91.104 C 331.334 90.827,328.728 84.357,327.820 82.386 C 327.533 81.761,326.893 80.405,326.399 79.373 C 325.904 78.340,325.500 77.462,325.500 77.422 C 325.500 77.349,322.210 71.298,321.555 70.167 C 320.439 68.237,320.085 67.649,319.498 66.750 C 319.138 66.200,318.794 65.650,318.732 65.528 C 318.596 65.258,316.564 62.151,316.370 61.917 C 316.294 61.825,315.766 61.075,315.197 60.250 C 313.660 58.023,311.778 55.555,309.497 52.776 C 307.746 50.644,307.635 50.512,307.167 50.000 C 306.938 49.750,306.337 49.074,305.833 48.498 C 303.949 46.345,300.508 42.846,296.343 38.848 C 294.959 37.520,290.880 34.101,287.417 31.367 C 286.514 30.655,284.713 29.322,283.667 28.592 C 283.346 28.368,282.708 27.920,282.250 27.595 C 280.730 26.519,277.767 24.558,276.583 23.845 C 275.942 23.459,274.892 22.814,274.250 22.412 C 273.608 22.010,273.014 21.678,272.930 21.674 C 272.845 21.670,272.658 21.563,272.513 21.436 C 272.368 21.309,271.837 20.981,271.333 20.708 C 270.829 20.435,270.004 19.976,269.500 19.688 C 268.359 19.037,259.914 14.833,259.747 14.833 C 259.679 14.833,259.165 14.617,258.604 14.353 C 257.657 13.907,256.776 13.539,253.750 12.326 C 244.329 8.547,231.256 5.085,222.000 3.918 C 217.426 3.341,214.408 3.015,211.917 2.828 C 208.724 2.589,196.999 2.479,194.417 2.663 M181.786 39.208 C 181.889 39.506,182.437 41.212,183.004 43.000 C 184.187 46.728,184.825 48.638,185.012 49.008 C 185.124 49.231,185.875 49.271,190.610 49.310 C 196.341 49.358,196.494 49.372,195.847 49.807 C 195.410 50.101,190.164 53.892,189.458 54.424 C 189.220 54.603,188.648 55.012,188.187 55.333 C 187.208 56.015,187.217 55.971,187.729 57.538 C 189.364 62.541,190.667 66.611,190.667 66.718 C 190.667 66.913,190.142 66.591,188.545 65.418 C 187.741 64.827,186.558 63.962,185.917 63.495 C 185.275 63.028,184.150 62.204,183.417 61.664 C 181.265 60.079,181.684 60.053,179.104 61.937 C 172.557 66.719,172.365 66.854,172.284 66.710 C 172.219 66.593,173.631 62.025,174.332 60.083 C 175.245 57.556,175.616 56.162,175.435 55.938 C 175.333 55.811,173.713 54.601,171.833 53.248 C 169.954 51.895,168.010 50.479,167.514 50.102 L 166.611 49.417 172.120 49.373 C 176.257 49.340,177.669 49.278,177.786 49.123 C 177.997 48.845,178.255 48.094,179.745 43.417 C 181.444 38.083,181.417 38.137,181.786 39.208 M218.916 39.042 C 218.974 39.248,219.081 39.567,219.154 39.750 C 219.228 39.933,219.579 41.014,219.936 42.151 C 220.292 43.288,220.958 45.351,221.417 46.734 L 222.250 49.250 227.726 49.282 C 233.327 49.315,233.694 49.350,233.040 49.790 C 232.832 49.929,231.932 50.580,231.040 51.236 C 230.147 51.892,228.340 53.210,227.024 54.164 C 224.124 56.267,224.301 55.740,225.390 59.018 C 226.608 62.687,227.833 66.480,227.833 66.583 C 227.833 66.899,226.672 66.109,220.689 61.722 C 218.427 60.064,218.794 60.096,217.028 61.403 C 210.384 66.322,208.889 67.277,209.482 66.228 C 209.578 66.057,210.006 64.829,210.433 63.500 C 210.859 62.171,211.574 59.974,212.021 58.619 C 212.468 57.264,212.833 56.124,212.833 56.087 C 212.833 56.049,211.465 55.026,209.792 53.814 C 205.138 50.441,203.821 49.457,203.881 49.396 C 203.912 49.366,206.343 49.335,209.285 49.326 C 213.129 49.316,214.705 49.256,214.889 49.114 C 215.139 48.921,215.743 47.201,217.501 41.667 C 218.564 38.320,218.663 38.138,218.916 39.042 M145.236 46.039 C 145.388 46.522,145.575 47.067,145.651 47.250 C 145.795 47.599,147.892 54.111,148.092 54.833 C 148.329 55.687,148.184 55.667,154.011 55.667 C 157.019 55.667,159.520 55.731,159.569 55.810 C 159.617 55.888,158.703 56.637,157.537 57.474 C 153.185 60.596,151.241 62.024,150.939 62.323 C 150.602 62.657,150.630 62.831,151.328 64.750 C 151.495 65.208,152.096 67.046,152.664 68.833 C 153.232 70.621,153.775 72.292,153.871 72.547 C 154.067 73.069,153.933 73.319,153.587 73.077 C 153.460 72.989,151.477 71.548,149.181 69.875 C 146.886 68.202,144.912 66.835,144.795 66.836 C 144.679 66.838,143.853 67.382,142.959 68.045 C 142.066 68.708,140.529 69.831,139.543 70.542 C 138.557 71.252,137.281 72.175,136.708 72.593 C 135.474 73.493,135.453 73.441,136.163 71.268 C 136.436 70.433,137.190 68.137,137.838 66.167 L 139.015 62.583 138.466 62.125 C 137.911 61.662,132.195 57.494,130.770 56.514 C 129.558 55.680,129.589 55.674,135.625 55.627 L 141.250 55.583 142.186 52.750 C 142.701 51.192,143.476 48.810,143.908 47.457 C 144.760 44.793,144.823 44.727,145.236 46.039 M256.494 48.458 C 257.077 50.269,257.837 52.612,258.183 53.667 L 258.812 55.583 264.281 55.625 C 270.585 55.674,270.492 55.660,269.480 56.382 C 268.559 57.038,265.784 59.053,263.852 60.468 C 263.063 61.046,262.137 61.721,261.796 61.968 C 261.031 62.520,261.031 62.407,261.808 64.787 C 262.161 65.867,262.884 68.100,263.415 69.750 C 263.946 71.400,264.415 72.844,264.458 72.958 C 264.630 73.419,264.060 73.079,261.381 71.125 C 259.842 70.002,258.395 68.947,258.166 68.781 C 257.937 68.615,257.249 68.109,256.638 67.656 C 255.267 66.642,255.410 66.635,253.797 67.792 C 252.515 68.710,251.739 69.270,248.024 71.958 C 245.809 73.562,245.846 73.591,246.732 70.940 C 248.221 66.486,249.352 62.804,249.303 62.566 C 249.274 62.421,247.304 60.897,244.926 59.179 C 242.547 57.460,240.572 55.967,240.537 55.861 C 240.489 55.716,241.889 55.667,246.073 55.667 L 251.674 55.667 251.825 55.292 C 251.907 55.085,252.627 52.892,253.424 50.417 C 255.109 45.185,255.115 45.167,255.296 45.167 C 255.372 45.167,255.911 46.648,256.494 48.458 M110.871 60.506 C 111.331 61.924,112.091 64.246,112.562 65.667 L 113.417 68.250 119.000 68.333 C 122.576 68.387,124.576 68.477,124.563 68.583 C 124.551 68.675,122.607 70.155,120.241 71.872 C 117.875 73.589,115.875 75.058,115.797 75.136 C 115.679 75.254,116.849 79.059,118.713 84.622 C 119.190 86.045,119.053 86.133,117.803 85.205 C 114.982 83.110,109.980 79.500,109.899 79.500 C 109.766 79.500,107.465 81.128,103.773 83.835 C 102.135 85.035,100.759 85.981,100.714 85.936 C 100.617 85.839,100.953 84.733,102.692 79.426 C 104.090 75.160,104.110 75.081,103.792 74.950 C 103.677 74.902,102.083 73.765,100.250 72.422 C 98.417 71.079,96.523 69.712,96.042 69.383 C 94.505 68.335,94.511 68.333,100.709 68.333 L 106.252 68.333 106.601 67.375 C 106.909 66.529,108.323 62.184,109.343 58.950 C 109.821 57.435,109.903 57.518,110.871 60.506 M290.747 58.953 C 291.214 60.476,293.001 65.974,293.417 67.167 L 293.794 68.250 299.266 68.294 C 302.276 68.318,304.806 68.406,304.889 68.489 C 305.032 68.632,303.806 69.592,299.534 72.677 C 298.590 73.359,297.649 74.029,297.441 74.167 C 296.179 75.003,295.926 75.299,296.127 75.697 C 296.234 75.910,296.522 76.721,296.768 77.500 C 297.013 78.279,297.719 80.454,298.336 82.333 C 299.472 85.794,299.548 86.193,298.992 85.801 C 298.822 85.681,296.807 84.215,294.513 82.542 C 292.219 80.869,290.301 79.500,290.250 79.500 C 290.160 79.500,288.642 80.579,283.732 84.132 C 281.708 85.597,281.000 86.023,281.000 85.778 C 281.000 85.747,281.552 84.041,282.226 81.986 C 283.954 76.721,284.334 75.507,284.327 75.281 C 284.323 75.172,282.338 73.658,279.915 71.917 C 277.493 70.175,275.533 68.675,275.561 68.583 C 275.593 68.478,277.629 68.401,281.117 68.373 L 286.624 68.329 286.962 67.373 C 287.148 66.847,287.425 66.004,287.579 65.500 C 287.733 64.996,287.996 64.208,288.165 63.750 C 288.591 62.589,289.833 58.607,289.833 58.402 C 289.833 58.174,290.192 57.829,290.336 57.918 C 290.399 57.957,290.584 58.423,290.747 58.953 M198.833 81.716 C 199.063 81.832,199.346 82.127,199.464 82.372 C 199.582 82.618,199.900 82.977,200.172 83.171 C 200.488 83.396,200.667 83.669,200.667 83.928 C 200.667 84.226,200.758 84.333,201.009 84.333 C 201.239 84.333,201.408 84.497,201.525 84.833 C 201.621 85.108,201.767 85.333,201.850 85.333 C 202.173 85.333,202.667 86.024,202.667 86.478 C 202.667 86.740,202.817 87.146,203.000 87.379 C 203.549 88.077,203.217 88.246,202.327 87.720 C 201.931 87.486,201.750 87.471,201.218 87.631 C 200.869 87.736,200.415 87.867,200.208 87.922 C 199.706 88.057,199.730 88.566,200.250 88.803 C 201.144 89.210,200.621 90.088,199.417 90.202 C 198.712 90.269,198.597 91.171,199.240 91.592 C 199.640 91.854,199.694 91.854,200.105 91.585 C 200.533 91.304,200.550 91.307,200.910 91.758 C 201.254 92.191,201.335 92.213,202.222 92.122 C 203.077 92.033,203.186 92.059,203.354 92.387 C 203.813 93.282,205.171 94.303,205.658 94.119 C 206.252 93.895,206.536 94.014,206.814 94.605 C 206.937 94.868,207.092 95.193,207.158 95.326 C 207.224 95.460,207.508 95.629,207.789 95.702 C 208.149 95.795,208.353 95.983,208.475 96.334 C 208.748 97.117,209.808 97.063,210.439 96.235 C 210.824 95.731,210.969 95.652,211.366 95.732 C 211.667 95.792,212.064 95.708,212.464 95.499 C 213.367 95.029,214.592 95.421,215.436 96.451 C 215.758 96.845,216.126 97.167,216.253 97.167 C 216.380 97.167,216.609 97.429,216.761 97.750 C 217.088 98.438,217.538 98.508,218.371 98.001 C 218.671 97.818,219.088 97.668,219.297 97.667 C 219.743 97.667,219.929 97.308,219.698 96.896 C 219.493 96.528,219.783 95.833,220.143 95.833 C 220.448 95.833,221.333 96.646,221.333 96.925 C 221.333 97.769,222.828 98.427,223.598 97.923 C 224.205 97.525,224.500 97.699,224.500 98.458 C 224.500 98.886,224.608 99.185,224.833 99.378 C 225.281 99.761,225.253 100.194,224.750 100.667 C 224.217 101.167,224.185 102.071,224.682 102.599 C 225.060 103.002,225.667 105.060,225.667 105.942 C 225.667 106.421,225.735 106.508,226.208 106.630 C 226.835 106.791,227.063 107.602,226.592 107.993 C 226.135 108.372,226.384 108.846,227.543 109.802 C 227.998 110.177,229.221 109.302,228.981 108.774 C 228.838 108.460,228.872 108.244,229.154 107.691 C 229.554 106.908,229.692 106.864,230.288 107.333 C 230.521 107.517,230.853 107.667,231.027 107.667 C 231.204 107.667,231.407 107.838,231.491 108.061 C 231.574 108.277,231.748 108.496,231.879 108.546 C 232.038 108.607,232.153 109.036,232.229 109.854 C 232.313 110.752,232.434 111.169,232.691 111.442 C 232.994 111.765,233.015 111.884,232.853 112.348 C 232.751 112.642,232.667 113.072,232.667 113.303 C 232.667 113.535,232.545 113.858,232.397 114.022 C 232.044 114.412,232.194 114.997,232.836 115.727 C 233.109 116.039,233.333 116.371,233.333 116.465 C 233.333 116.892,234.268 118.374,234.698 118.628 C 235.140 118.889,235.348 119.336,235.531 120.413 C 235.632 121.010,236.430 121.134,236.838 120.615 C 237.256 120.084,238.062 119.836,238.749 120.027 C 239.023 120.104,239.661 120.168,240.166 120.169 C 241.488 120.173,242.131 120.882,241.905 122.088 C 241.809 122.597,241.838 122.667,242.142 122.667 C 242.332 122.667,242.633 122.824,242.812 123.016 C 243.025 123.245,243.250 123.329,243.462 123.262 C 243.653 123.201,243.869 123.259,243.988 123.402 C 244.350 123.838,245.119 123.895,245.594 123.521 C 246.408 122.881,248.487 122.854,248.822 123.479 C 249.168 124.125,248.838 125.624,248.328 125.726 C 247.919 125.808,247.854 125.912,247.752 126.651 C 247.689 127.109,247.532 127.571,247.402 127.679 C 247.092 127.936,247.103 128.273,247.426 128.397 C 248.010 128.621,247.669 130.071,247.009 130.167 C 246.252 130.276,245.669 131.145,246.078 131.554 C 246.401 131.877,246.398 131.985,246.056 132.364 C 245.796 132.651,245.802 132.695,246.162 133.078 L 246.545 133.486 245.792 134.218 C 245.378 134.620,244.918 134.996,244.770 135.053 C 244.425 135.185,244.421 135.897,244.763 136.239 C 245.256 136.732,245.615 136.846,245.836 136.580 C 245.978 136.409,246.370 136.333,247.112 136.333 C 247.757 136.333,248.383 136.230,248.687 136.073 C 249.215 135.800,249.667 135.958,249.667 136.415 C 249.667 136.587,250.839 137.500,251.060 137.500 C 251.096 137.500,251.219 137.275,251.333 137.000 C 251.559 136.456,251.998 136.346,252.333 136.750 C 252.447 136.887,252.726 137.000,252.953 137.000 C 253.224 137.000,253.394 137.113,253.452 137.333 C 253.517 137.582,253.679 137.667,254.091 137.667 C 254.481 137.667,254.739 137.789,254.970 138.083 C 255.355 138.573,256.072 138.637,256.530 138.223 C 256.791 137.986,256.896 137.977,257.240 138.162 C 257.705 138.410,258.167 138.293,258.167 137.925 C 258.167 137.489,258.975 137.410,259.348 137.811 C 259.528 138.004,259.880 138.208,260.130 138.263 C 261.068 138.472,261.177 138.536,261.432 139.030 C 261.684 139.517,261.677 139.554,261.264 139.986 C 260.706 140.568,260.698 140.545,261.648 141.155 C 262.677 141.815,263.877 141.992,264.642 141.596 C 265.321 141.245,265.436 141.325,265.574 142.244 C 265.635 142.656,265.757 143.036,265.843 143.089 C 265.929 143.143,266.000 143.403,266.000 143.668 C 266.000 144.178,266.850 145.000,267.379 145.000 C 267.784 145.000,268.333 144.185,268.333 143.583 C 268.333 142.783,269.503 142.318,271.727 142.233 C 273.038 142.184,273.487 142.099,273.943 141.817 C 274.694 141.353,275.202 141.704,275.129 142.636 C 275.090 143.127,275.158 143.256,275.583 143.495 C 275.992 143.724,276.099 143.909,276.167 144.512 C 276.239 145.152,276.324 145.284,276.817 145.515 C 277.684 145.924,278.250 147.000,277.597 147.000 C 277.467 147.000,277.215 147.200,277.037 147.445 C 276.772 147.809,276.593 147.885,276.050 147.864 C 275.099 147.827,274.581 148.395,274.727 149.313 C 274.871 150.212,274.453 150.940,273.713 151.079 C 272.870 151.237,272.798 151.856,273.532 152.638 C 274.629 153.805,274.745 154.105,274.402 154.866 C 274.165 155.392,274.144 155.591,274.299 155.840 C 274.578 156.287,274.373 156.667,273.853 156.667 C 273.608 156.667,273.277 156.819,273.117 157.005 C 272.869 157.296,272.708 157.328,271.984 157.232 C 271.188 157.127,271.114 157.150,270.663 157.644 C 270.400 157.931,270.069 158.167,269.926 158.167 C 269.476 158.167,269.635 158.913,270.248 159.685 C 270.977 160.601,271.053 161.784,270.327 160.910 C 269.980 160.491,269.610 160.704,269.338 161.480 C 269.132 162.067,268.973 162.244,268.512 162.395 C 268.099 162.531,267.837 162.780,267.566 163.295 C 267.102 164.175,266.505 164.897,266.029 165.151 C 265.830 165.258,265.667 165.494,265.667 165.676 C 265.667 165.882,265.493 166.077,265.208 166.191 C 263.692 166.799,263.463 167.159,263.932 168.204 C 264.107 168.594,264.463 169.156,264.722 169.453 C 265.090 169.873,265.172 170.096,265.093 170.458 C 265.004 170.863,265.055 170.948,265.495 171.114 C 266.205 171.382,266.094 171.761,265.125 172.381 C 264.855 172.554,264.664 172.827,264.661 173.046 C 264.658 173.250,264.546 173.562,264.411 173.740 C 264.277 173.918,264.167 174.186,264.167 174.336 C 264.167 175.268,262.724 175.717,261.989 175.015 C 261.137 174.200,259.593 174.783,259.699 175.878 C 259.776 176.680,258.275 176.903,257.309 176.233 C 256.435 175.627,255.639 176.050,256.140 176.853 C 256.447 177.344,256.375 178.244,256.003 178.580 C 255.505 179.031,255.397 179.909,255.773 180.438 C 256.518 181.486,256.665 181.775,256.666 182.191 C 256.667 182.968,257.451 182.976,258.109 182.205 C 258.552 181.686,258.934 181.799,259.068 182.489 C 259.122 182.770,259.211 183.228,259.265 183.507 C 259.319 183.786,259.639 184.333,259.977 184.723 C 261.310 186.264,261.166 187.411,259.553 188.101 C 259.261 188.226,258.974 188.407,258.915 188.503 C 258.852 188.605,258.571 188.633,258.230 188.569 C 257.807 188.489,257.570 188.536,257.340 188.744 C 256.791 189.241,256.279 189.015,256.030 188.167 C 255.444 186.172,254.857 185.437,253.990 185.610 C 253.608 185.687,253.385 185.600,252.929 185.200 C 252.232 184.588,251.735 184.644,251.580 185.350 C 251.459 185.901,250.712 186.040,250.333 185.583 C 249.887 185.045,249.260 185.324,249.539 185.936 C 249.697 186.283,249.661 186.405,249.278 186.804 C 248.723 187.383,248.716 187.834,249.250 188.470 C 249.780 189.099,249.824 190.071,249.335 190.333 C 248.881 190.575,248.267 190.237,247.398 189.266 C 246.718 188.507,246.006 188.253,245.744 188.676 C 245.681 188.778,245.429 188.808,245.151 188.747 C 244.747 188.658,244.667 188.694,244.667 188.961 C 244.667 189.137,244.513 189.421,244.326 189.590 C 244.138 189.760,243.867 190.148,243.722 190.451 C 243.576 190.760,243.292 191.046,243.079 191.099 C 242.627 191.213,242.132 191.726,241.809 192.417 C 241.642 192.775,241.458 192.917,241.163 192.917 C 240.453 192.917,240.315 193.116,240.429 193.974 C 240.527 194.711,240.493 194.806,239.850 195.584 C 239.311 196.236,239.167 196.546,239.167 197.054 C 239.167 197.688,238.912 198.149,238.034 199.111 C 237.755 199.417,237.699 199.588,237.826 199.741 C 237.980 199.927,238.446 200.761,238.953 201.756 C 239.044 201.936,239.242 202.319,239.391 202.607 C 239.657 203.117,239.653 203.137,239.254 203.398 C 238.594 203.831,238.326 203.748,238.374 203.125 C 238.438 202.309,237.835 202.277,237.454 203.076 C 237.229 203.548,237.077 203.667,236.698 203.667 C 236.416 203.667,236.075 203.826,235.855 204.060 C 235.369 204.577,233.822 204.766,232.857 204.425 C 232.492 204.296,232.052 204.228,231.879 204.273 C 231.426 204.392,230.557 202.683,230.820 202.191 C 231.220 201.445,231.043 200.609,230.340 199.923 C 229.975 199.567,229.566 198.945,229.426 198.536 C 229.288 198.129,228.872 197.468,228.504 197.068 C 228.115 196.646,227.833 196.175,227.833 195.946 C 227.833 195.729,227.683 195.416,227.500 195.250 C 227.317 195.084,227.167 194.737,227.167 194.478 C 227.167 193.830,226.697 193.580,225.000 193.324 C 224.221 193.207,223.465 193.011,223.320 192.889 C 222.733 192.393,221.919 192.611,221.078 193.489 C 220.644 193.941,219.934 194.464,219.499 194.651 C 218.763 194.968,217.667 195.976,217.667 196.337 C 217.667 196.424,217.380 196.677,217.029 196.898 C 216.678 197.120,216.165 197.528,215.888 197.805 C 215.586 198.107,215.123 198.356,214.733 198.426 C 214.070 198.545,213.804 198.653,212.520 199.321 C 211.975 199.605,211.377 199.729,210.154 199.811 C 208.647 199.912,208.477 199.959,208.012 200.405 C 207.735 200.671,207.345 200.900,207.146 200.915 C 206.893 200.934,206.705 201.139,206.518 201.601 C 206.368 201.970,205.797 202.686,205.222 203.226 L 204.193 204.192 202.605 204.003 C 200.910 203.800,200.442 203.894,200.258 204.473 C 200.003 205.277,199.449 205.524,197.747 205.592 C 196.021 205.660,195.684 205.825,195.672 206.604 C 195.666 206.993,194.635 208.183,194.042 208.487 C 193.658 208.683,193.535 209.232,193.833 209.417 C 194.130 209.600,194.012 210.005,193.461 210.690 L 192.922 211.361 192.877 213.711 C 192.836 215.842,192.862 216.093,193.155 216.405 C 193.512 216.787,194.329 218.455,194.332 218.808 C 194.333 218.932,194.099 219.252,193.813 219.519 L 193.292 220.005 193.727 220.662 C 193.966 221.024,194.498 221.566,194.908 221.868 C 195.822 222.541,195.836 222.677,195.022 223.019 C 194.575 223.207,194.195 223.568,193.765 224.216 C 193.426 224.726,192.893 225.295,192.580 225.480 C 192.055 225.790,191.942 225.996,191.792 226.917 C 191.756 227.140,191.633 227.232,191.422 227.194 C 191.248 227.163,190.989 227.286,190.845 227.466 C 190.565 227.817,188.090 229.167,187.726 229.167 C 187.605 229.167,187.361 228.881,187.183 228.533 C 186.464 227.123,185.388 227.139,183.923 228.583 C 183.318 229.179,182.682 229.667,182.510 229.667 C 182.098 229.667,180.167 227.555,180.164 227.101 C 180.161 226.649,179.762 225.479,179.242 224.400 C 178.736 223.349,178.736 223.265,179.236 223.037 C 179.458 222.936,179.740 222.642,179.863 222.385 C 180.017 222.064,180.248 221.891,180.599 221.833 C 182.590 221.509,183.589 217.771,182.086 216.268 C 181.863 216.045,181.646 215.687,181.604 215.473 C 181.246 213.633,181.114 213.147,180.828 212.613 C 180.639 212.260,180.500 211.679,180.500 211.240 C 180.500 210.236,180.339 209.953,179.025 208.653 C 178.253 207.889,177.782 207.248,177.473 206.540 L 177.030 205.524 177.432 204.980 C 177.847 204.416,177.957 203.763,177.667 203.583 C 177.403 203.420,177.471 202.919,177.855 202.199 L 178.210 201.534 177.671 200.592 C 177.332 199.999,177.166 199.520,177.224 199.300 C 177.287 199.059,177.137 198.733,176.741 198.250 C 176.425 197.864,176.167 197.385,176.167 197.186 C 176.167 196.986,175.967 196.431,175.724 195.953 C 175.480 195.475,175.108 194.424,174.897 193.618 C 174.686 192.813,174.361 191.959,174.173 191.721 C 173.986 191.483,173.833 191.182,173.833 191.052 C 173.833 190.923,173.584 190.712,173.279 190.585 C 172.854 190.407,172.679 190.197,172.524 189.681 C 172.386 189.222,172.061 188.784,171.495 188.296 C 171.039 187.904,170.667 187.496,170.667 187.389 C 170.667 186.808,168.160 185.167,167.273 185.167 C 167.072 185.167,166.753 185.058,166.563 184.926 C 166.374 184.793,165.861 184.594,165.423 184.484 C 164.722 184.308,164.589 184.201,164.321 183.594 C 163.987 182.839,163.567 182.592,161.709 182.052 C 160.770 181.780,160.667 181.707,160.667 181.309 C 160.666 179.724,158.608 179.536,156.955 180.968 C 156.687 181.201,156.620 181.184,156.196 180.778 C 155.681 180.285,155.221 180.231,154.094 180.532 C 153.344 180.733,153.290 180.723,152.167 180.172 C 152.026 180.103,151.893 179.769,151.863 179.409 C 151.833 179.056,151.656 178.553,151.469 178.290 L 151.129 177.812 151.473 177.445 C 152.023 176.860,151.872 174.167,151.289 174.167 C 151.218 174.167,150.842 173.877,150.455 173.524 C 150.067 173.170,149.581 172.792,149.375 172.684 C 148.768 172.367,149.075 171.000,149.754 171.000 C 150.595 171.000,150.327 169.271,149.342 168.342 C 148.996 168.016,148.671 167.628,148.620 167.478 C 148.568 167.328,148.295 167.104,148.013 166.979 C 147.513 166.758,147.332 166.290,147.667 166.083 C 148.006 165.874,147.816 165.337,147.250 164.905 C 146.783 164.549,146.667 164.346,146.667 163.889 C 146.667 163.461,146.520 163.166,146.083 162.716 C 145.704 162.325,145.500 161.956,145.500 161.657 C 145.500 161.139,143.358 159.696,142.554 159.672 C 142.447 159.669,142.134 159.477,141.859 159.246 C 141.583 159.014,141.109 158.741,140.804 158.639 C 140.208 158.439,139.667 158.040,139.667 157.801 C 139.667 157.623,139.068 156.746,138.546 156.159 L 138.169 155.734 138.522 154.629 C 138.926 153.362,138.873 152.770,138.246 151.591 C 137.618 150.411,137.789 148.744,138.568 148.445 C 138.705 148.393,138.938 148.103,139.086 147.800 C 139.235 147.498,139.701 146.941,140.122 146.564 C 140.911 145.856,141.013 145.333,140.361 145.333 C 140.187 145.333,139.866 145.194,139.647 145.025 C 139.429 144.855,138.800 144.550,138.250 144.346 C 137.700 144.143,137.063 143.804,136.833 143.593 C 135.994 142.821,135.597 142.667,134.488 142.683 C 132.881 142.707,131.974 142.521,131.877 142.147 C 131.831 141.975,131.657 141.833,131.490 141.833 C 131.113 141.833,130.667 141.223,130.667 140.708 C 130.667 140.496,130.551 140.279,130.411 140.225 C 129.623 139.922,129.637 138.833,130.428 138.833 C 130.917 138.833,131.125 137.421,130.705 136.953 C 130.504 136.729,130.477 136.550,130.595 136.221 C 130.753 135.777,130.868 135.685,131.747 135.299 C 132.021 135.180,132.396 134.841,132.580 134.547 C 132.765 134.253,133.032 134.010,133.172 134.006 C 134.035 133.985,135.242 133.499,135.614 133.025 C 136.149 132.341,136.915 132.198,137.677 132.641 C 137.992 132.824,138.730 133.129,139.317 133.319 C 139.908 133.511,140.492 133.820,140.626 134.011 C 140.828 134.299,140.977 134.338,141.514 134.248 C 142.049 134.157,142.313 134.226,143.049 134.647 C 143.931 135.151,143.950 135.154,145.534 135.021 C 146.412 134.946,147.361 134.920,147.641 134.961 C 148.092 135.027,148.163 134.980,148.253 134.559 C 148.519 133.304,148.791 132.965,149.276 133.282 C 149.774 133.609,149.757 133.737,149.413 132.208 C 149.303 131.716,149.328 131.666,149.688 131.661 C 150.459 131.649,151.487 130.710,151.504 130.000 C 151.515 129.542,152.430 128.757,153.691 128.125 C 155.121 127.407,155.372 127.375,155.955 127.833 C 156.565 128.314,157.833 128.038,157.833 127.424 C 157.833 127.296,158.038 127.029,158.289 126.832 C 158.739 126.478,158.879 126.472,160.033 126.758 C 160.356 126.837,160.623 126.768,160.985 126.511 C 162.553 125.394,164.119 125.270,165.313 126.167 C 166.609 127.141,167.814 126.916,168.438 125.583 C 168.610 125.217,168.925 124.832,169.138 124.728 C 169.352 124.624,169.819 124.235,170.176 123.864 C 170.826 123.187,171.059 123.105,172.749 122.960 C 173.106 122.929,173.310 122.786,173.466 122.458 C 173.640 122.094,173.799 122.000,174.239 122.000 C 175.287 122.000,175.500 121.086,174.528 120.759 C 174.223 120.657,173.848 120.413,173.695 120.218 C 173.542 120.023,173.267 119.837,173.085 119.805 C 172.888 119.770,172.718 119.575,172.668 119.329 C 172.549 118.743,171.491 117.167,171.217 117.167 C 170.745 117.167,170.768 116.621,171.255 116.232 C 171.663 115.907,171.727 115.748,171.691 115.148 C 171.652 114.475,171.699 114.399,172.783 113.390 C 174.103 112.162,174.214 112.138,174.937 112.927 C 175.600 113.651,176.004 113.534,176.304 112.534 C 176.411 112.175,176.679 111.616,176.899 111.291 C 177.120 110.967,177.347 110.551,177.406 110.368 C 177.464 110.186,177.738 109.942,178.014 109.827 C 178.358 109.685,178.548 109.469,178.612 109.146 C 178.778 108.320,179.781 107.884,180.190 108.460 C 180.625 109.074,181.826 109.416,182.083 109.000 C 182.140 108.908,182.402 108.833,182.667 108.833 C 183.217 108.833,183.359 108.662,183.493 107.843 C 183.554 107.466,183.720 107.192,183.957 107.073 C 184.160 106.972,184.507 106.694,184.729 106.456 C 184.979 106.185,185.247 106.052,185.440 106.102 C 186.161 106.289,186.378 105.808,185.886 105.116 C 185.439 104.488,185.437 104.476,185.705 103.752 C 186.005 102.943,185.908 102.744,185.167 102.641 C 184.430 102.539,184.464 101.500,185.204 101.500 C 185.837 101.500,187.170 100.877,187.344 100.500 C 187.839 99.427,187.963 98.225,187.642 97.614 C 187.215 96.801,186.126 95.679,185.592 95.503 C 185.020 95.314,184.719 94.924,185.007 94.746 C 185.214 94.617,185.213 93.731,185.004 93.341 C 184.679 92.734,182.691 91.840,181.657 91.835 C 180.838 91.832,180.518 91.430,180.958 90.961 C 181.691 90.181,181.263 89.027,180.137 88.747 C 179.559 88.604,179.443 88.274,179.811 87.819 C 180.058 87.515,180.163 87.486,180.459 87.644 C 180.909 87.885,181.755 87.887,182.202 87.648 C 182.458 87.511,182.704 87.514,183.149 87.659 C 183.634 87.818,183.859 87.810,184.317 87.616 C 184.699 87.454,185.223 87.403,185.926 87.459 C 187.075 87.552,186.925 87.642,188.271 86.045 C 188.598 85.658,189.121 85.183,189.433 84.990 C 189.745 84.797,190.000 84.563,190.000 84.470 C 190.000 83.371,190.793 82.969,191.873 83.520 C 192.442 83.810,192.742 83.856,193.544 83.772 C 194.251 83.698,194.655 83.738,195.003 83.918 C 195.806 84.333,196.137 84.246,196.261 83.585 C 196.372 82.992,196.331 82.817,195.959 82.282 C 195.490 81.606,197.740 81.163,198.833 81.716 " stroke="none" fill="#2f48a4" fill-rule="evenodd"></path><path id="path2" d="M180.753 40.628 C 180.410 41.704,179.632 44.083,179.023 45.917 L 177.917 49.250 172.375 49.294 C 169.327 49.318,166.836 49.393,166.839 49.461 C 166.842 49.528,168.787 50.971,171.161 52.667 C 173.535 54.362,175.522 55.854,175.576 55.982 C 175.658 56.175,173.888 61.942,172.639 65.554 C 172.454 66.088,172.339 66.561,172.382 66.605 C 172.426 66.648,174.402 65.269,176.773 63.540 C 179.144 61.810,181.170 60.344,181.277 60.281 C 181.385 60.216,182.294 60.766,183.360 61.541 C 184.400 62.298,185.438 63.044,185.667 63.199 C 185.896 63.354,187.058 64.197,188.250 65.073 C 189.442 65.949,190.461 66.666,190.516 66.666 C 190.571 66.666,190.227 65.485,189.753 64.042 C 187.104 55.983,187.144 56.118,187.368 55.897 C 187.599 55.669,191.214 53.017,194.332 50.786 L 196.247 49.417 190.597 49.333 L 184.947 49.250 183.309 44.250 C 182.408 41.500,181.670 39.161,181.669 39.052 C 181.661 38.310,181.285 38.958,180.753 40.628 M217.594 41.703 C 215.792 47.270,215.242 48.915,215.110 49.125 C 215.011 49.285,213.688 49.335,209.448 49.339 L 203.917 49.345 204.417 49.760 C 204.692 49.988,206.702 51.466,208.883 53.045 C 212.753 55.847,212.847 55.929,212.756 56.417 C 212.705 56.692,211.954 59.088,211.087 61.742 C 210.220 64.395,209.539 66.594,209.572 66.628 C 209.626 66.681,215.888 62.202,217.812 60.733 C 218.683 60.069,218.433 59.972,221.389 62.126 C 225.718 65.280,227.701 66.688,227.742 66.636 C 227.782 66.586,227.336 65.188,225.263 58.879 C 224.578 56.792,224.417 56.119,224.562 55.934 C 224.730 55.720,226.384 54.498,231.750 50.621 L 233.417 49.417 227.813 49.373 L 222.210 49.329 221.872 48.373 C 221.168 46.379,219.000 39.635,219.000 39.437 C 219.000 39.323,218.905 39.101,218.790 38.943 C 218.610 38.697,218.439 39.090,217.594 41.703 M143.679 48.450 C 141.942 53.842,141.365 55.535,141.214 55.686 C 141.136 55.764,138.601 55.848,135.581 55.873 L 130.091 55.917 131.254 56.739 C 131.893 57.191,132.942 57.946,133.583 58.418 C 134.225 58.889,135.713 59.976,136.890 60.833 C 138.960 62.339,139.027 62.407,138.929 62.899 C 138.873 63.178,138.114 65.575,137.242 68.226 C 136.370 70.877,135.682 73.071,135.713 73.101 C 135.743 73.132,137.782 71.693,140.244 69.904 C 142.705 68.115,144.813 66.687,144.929 66.732 C 145.138 66.812,151.856 71.656,153.462 72.885 C 154.018 73.310,153.720 72.215,151.314 65.000 L 150.508 62.583 150.977 62.167 C 151.235 61.938,153.265 60.438,155.488 58.833 L 159.529 55.917 154.033 55.873 C 149.912 55.840,148.496 55.777,148.372 55.623 C 148.281 55.509,148.049 54.929,147.856 54.333 C 147.663 53.737,146.979 51.646,146.336 49.685 C 145.693 47.724,145.167 46.032,145.167 45.925 C 145.167 45.818,145.071 45.600,144.954 45.440 C 144.772 45.190,144.595 45.607,143.679 48.450 M253.998 48.866 C 251.940 55.217,251.823 55.565,251.730 55.659 C 251.680 55.709,249.152 55.788,246.111 55.833 L 240.583 55.917 243.667 58.148 C 248.752 61.829,249.500 62.395,249.500 62.563 C 249.500 62.730,246.618 71.724,246.301 72.547 C 246.028 73.253,246.155 73.220,247.503 72.229 C 248.189 71.725,249.575 70.718,250.583 69.991 C 251.592 69.265,253.040 68.220,253.802 67.669 C 255.454 66.474,255.153 66.487,256.613 67.548 C 261.037 70.760,262.507 71.832,263.324 72.444 C 264.618 73.414,264.721 73.972,262.170 66.182 C 261.302 63.530,261.048 62.559,261.183 62.397 C 261.359 62.185,263.008 60.965,267.703 57.570 L 269.989 55.917 264.425 55.833 C 261.365 55.788,258.828 55.712,258.788 55.667 C 258.748 55.621,258.171 53.896,257.505 51.833 C 256.188 47.749,255.362 45.306,255.265 45.210 C 255.231 45.176,254.661 46.821,253.998 48.866 M109.007 60.292 C 107.618 64.664,106.458 68.084,106.294 68.289 C 106.171 68.444,104.749 68.507,100.606 68.539 L 95.083 68.583 96.417 69.534 C 98.834 71.258,103.746 74.858,103.956 75.059 C 104.119 75.216,104.096 75.447,103.844 76.170 C 103.670 76.672,102.911 78.996,102.158 81.333 C 101.405 83.671,100.757 85.640,100.718 85.708 C 100.540 86.022,101.039 85.773,101.887 85.125 C 102.882 84.366,106.945 81.410,107.551 81.006 C 107.752 80.872,108.350 80.434,108.880 80.034 L 109.844 79.306 112.130 80.959 C 113.388 81.868,115.373 83.306,116.542 84.153 C 117.711 85.001,118.731 85.669,118.810 85.639 C 118.888 85.608,118.336 83.708,117.583 81.417 C 115.789 75.955,115.666 75.560,115.671 75.302 C 115.676 75.116,121.435 70.801,123.748 69.250 C 124.158 68.975,124.495 68.694,124.497 68.625 C 124.499 68.556,122.034 68.500,119.020 68.500 C 114.833 68.500,113.503 68.451,113.381 68.292 C 113.294 68.177,113.065 67.596,112.872 67.000 C 112.680 66.404,111.949 64.135,111.247 61.958 C 110.546 59.781,109.918 58.000,109.853 58.000 C 109.788 58.000,109.407 59.031,109.007 60.292 M289.998 58.194 C 289.997 58.317,289.261 60.667,288.363 63.417 L 286.730 68.417 281.198 68.461 C 275.634 68.505,275.285 68.548,276.125 69.092 C 276.377 69.255,277.617 70.145,278.880 71.069 C 280.143 71.994,281.345 72.862,281.551 73.000 C 282.325 73.517,284.500 75.172,284.500 75.245 C 284.500 75.343,282.106 82.716,281.560 84.296 C 280.910 86.182,280.784 86.218,284.583 83.419 C 288.194 80.760,290.063 79.444,290.232 79.444 C 290.337 79.444,292.399 80.885,294.815 82.647 C 297.230 84.408,299.237 85.818,299.275 85.781 C 299.312 85.743,298.918 84.409,298.399 82.815 C 297.880 81.221,297.128 78.910,296.728 77.680 C 296.328 76.450,296.003 75.362,296.007 75.263 C 296.011 75.164,297.996 73.658,300.418 71.917 C 302.840 70.175,304.825 68.695,304.828 68.627 C 304.831 68.560,302.340 68.485,299.292 68.461 L 293.750 68.417 292.810 65.583 C 292.293 64.025,291.530 61.702,291.114 60.421 C 290.453 58.382,290.004 57.486,289.998 58.194 " stroke="none" fill="#f9f8f7" fill-rule="evenodd"></path><path id="path3" d="M215.180 48.700 C 215.173 48.856,215.035 49.060,214.875 49.153 C 214.715 49.247,214.668 49.325,214.771 49.328 C 215.046 49.336,215.379 48.879,215.279 48.631 C 215.224 48.493,215.188 48.518,215.180 48.700 M230.417 51.598 L 229.917 52.028 230.458 51.669 C 230.756 51.472,231.000 51.278,231.000 51.239 C 231.000 51.114,230.929 51.157,230.417 51.598 M141.276 55.409 C 141.190 55.634,140.472 55.667,135.589 55.667 C 130.136 55.667,129.684 55.711,130.292 56.188 C 130.556 56.395,130.562 56.389,130.355 56.125 C 130.138 55.848,130.412 55.833,135.626 55.833 C 141.082 55.833,141.966 55.743,141.461 55.239 C 141.413 55.191,141.330 55.268,141.276 55.409 M148.320 55.542 C 148.522 55.809,148.997 55.833,154.030 55.833 C 158.137 55.833,159.490 55.882,159.401 56.026 C 159.326 56.146,159.355 56.173,159.477 56.098 C 160.050 55.743,159.080 55.667,154.023 55.667 C 149.894 55.667,148.510 55.616,148.333 55.458 C 148.134 55.281,148.132 55.294,148.320 55.542 M240.500 55.813 C 240.500 55.893,240.631 56.062,240.792 56.188 C 241.056 56.395,241.062 56.389,240.857 56.127 C 240.642 55.854,240.935 55.835,246.107 55.792 L 251.583 55.745 246.042 55.706 C 242.944 55.684,240.500 55.731,240.500 55.813 M260.833 55.785 C 265.642 55.902,270.128 55.906,270.058 55.792 C 270.015 55.723,267.491 55.683,264.448 55.703 C 261.406 55.722,259.779 55.759,260.833 55.785 M133.000 58.061 C 133.000 58.106,133.225 58.304,133.500 58.500 C 133.775 58.696,134.000 58.819,134.000 58.773 C 134.000 58.727,133.775 58.529,133.500 58.333 C 133.225 58.138,133.000 58.015,133.000 58.061 M113.172 67.938 C 113.158 68.438,113.691 68.492,119.121 68.537 C 122.154 68.563,124.600 68.527,124.558 68.458 C 124.515 68.390,122.013 68.333,118.998 68.333 C 113.953 68.333,113.503 68.310,113.347 68.042 C 113.253 67.881,113.175 67.835,113.172 67.938 M286.667 68.137 C 286.667 68.277,285.177 68.341,281.139 68.373 C 276.820 68.407,275.602 68.463,275.568 68.629 C 275.544 68.746,275.563 68.765,275.610 68.671 C 275.665 68.559,277.597 68.500,281.171 68.500 C 286.339 68.500,287.156 68.434,286.767 68.044 C 286.712 67.989,286.667 68.031,286.667 68.137 M293.804 68.371 C 293.870 68.437,296.413 68.512,299.454 68.537 C 302.495 68.563,304.929 68.529,304.863 68.463 C 304.797 68.397,302.254 68.322,299.213 68.296 C 296.171 68.271,293.737 68.304,293.804 68.371 M97.875 68.458 C 99.410 68.486,101.923 68.486,103.458 68.458 C 104.994 68.431,103.737 68.408,100.667 68.408 C 97.596 68.408,96.340 68.431,97.875 68.458 M141.583 68.937 C 141.284 69.192,141.222 69.294,141.430 69.191 C 141.736 69.039,142.309 68.490,142.145 68.506 C 142.111 68.509,141.858 68.703,141.583 68.937 M96.833 69.894 C 96.833 69.940,97.058 70.138,97.333 70.333 C 97.608 70.529,97.833 70.652,97.833 70.606 C 97.833 70.560,97.608 70.362,97.333 70.167 C 97.058 69.971,96.833 69.848,96.833 69.894 M249.083 71.098 L 248.583 71.528 249.125 71.169 C 249.423 70.972,249.667 70.778,249.667 70.739 C 249.667 70.614,249.596 70.657,249.083 71.098 M137.250 72.098 L 136.750 72.528 137.292 72.169 C 137.590 71.972,137.833 71.778,137.833 71.739 C 137.833 71.614,137.763 71.657,137.250 72.098 M153.312 72.875 C 153.438 73.035,153.644 73.167,153.770 73.167 C 153.897 73.167,153.999 73.035,153.997 72.875 C 153.995 72.635,153.968 72.626,153.843 72.823 C 153.712 73.031,153.652 73.031,153.388 72.823 C 153.109 72.604,153.103 72.608,153.312 72.875 M289.417 79.931 L 288.917 80.361 289.458 80.002 C 289.756 79.805,290.000 79.612,290.000 79.572 C 290.000 79.447,289.929 79.491,289.417 79.931 M285.250 82.931 L 284.750 83.361 285.292 83.002 C 285.590 82.805,285.833 82.612,285.833 82.572 C 285.833 82.447,285.763 82.491,285.250 82.931 M201.542 92.282 C 201.702 92.323,201.965 92.323,202.125 92.282 C 202.285 92.240,202.154 92.205,201.833 92.205 C 201.512 92.205,201.381 92.240,201.542 92.282 M180.976 109.209 C 181.060 109.293,181.306 109.334,181.522 109.300 C 181.856 109.247,181.833 109.224,181.370 109.147 C 181.039 109.092,180.883 109.116,180.976 109.209 M171.705 115.000 C 171.705 115.321,171.740 115.452,171.782 115.292 C 171.823 115.131,171.823 114.869,171.782 114.708 C 171.740 114.548,171.705 114.679,171.705 115.000 M247.519 129.529 C 247.507 129.803,247.387 130.005,247.208 130.052 C 246.935 130.123,246.935 130.129,247.214 130.147 C 247.552 130.169,247.732 129.829,247.617 129.385 C 247.564 129.182,247.532 129.230,247.519 129.529 M264.312 166.458 C 264.113 166.712,264.116 166.725,264.333 166.560 C 264.471 166.455,264.733 166.332,264.917 166.287 C 265.233 166.209,265.232 166.204,264.895 166.186 C 264.700 166.175,264.438 166.298,264.312 166.458 M151.872 176.500 C 151.872 176.821,151.906 176.952,151.948 176.792 C 151.990 176.631,151.990 176.369,151.948 176.208 C 151.906 176.048,151.872 176.179,151.872 176.500 M151.872 179.500 C 151.872 179.821,151.906 179.952,151.948 179.792 C 151.990 179.631,151.990 179.369,151.948 179.208 C 151.906 179.048,151.872 179.179,151.872 179.500 M211.917 199.423 C 211.642 199.549,211.534 199.655,211.676 199.659 C 211.819 199.663,212.082 199.557,212.260 199.422 C 212.655 199.123,212.570 199.123,211.917 199.423 M230.167 199.750 C 230.478 200.071,230.770 200.333,230.815 200.333 C 230.861 200.333,230.644 200.071,230.333 199.750 C 230.022 199.429,229.730 199.167,229.685 199.167 C 229.639 199.167,229.856 199.429,230.167 199.750 M179.167 208.719 C 179.167 208.748,179.410 208.991,179.708 209.260 L 180.250 209.750 179.760 209.208 C 179.304 208.703,179.167 208.590,179.167 208.719 M192.717 215.000 C 192.717 215.504,192.748 215.710,192.786 215.458 C 192.824 215.206,192.824 214.794,192.786 214.542 C 192.748 214.290,192.717 214.496,192.717 215.000 " stroke="none" fill="#7a7d95" fill-rule="evenodd"></path><path id="path4" d="M197.208 81.615 C 197.369 81.657,197.631 81.657,197.792 81.615 C 197.952 81.573,197.821 81.539,197.500 81.539 C 197.179 81.539,197.048 81.573,197.208 81.615 M209.127 96.951 C 209.334 96.991,209.634 96.990,209.794 96.948 C 209.953 96.906,209.783 96.874,209.417 96.875 C 209.050 96.877,208.920 96.911,209.127 96.951 M224.106 97.779 C 224.210 97.855,224.336 98.067,224.386 98.250 C 224.459 98.513,224.472 98.498,224.447 98.180 C 224.431 97.958,224.304 97.746,224.167 97.709 C 224.001 97.664,223.981 97.688,224.106 97.779 M185.208 101.615 C 185.369 101.657,185.631 101.657,185.792 101.615 C 185.952 101.573,185.821 101.539,185.500 101.539 C 185.179 101.539,185.048 101.573,185.208 101.615 M226.647 107.203 C 226.724 107.666,226.747 107.689,226.800 107.356 C 226.834 107.139,226.793 106.893,226.709 106.809 C 226.616 106.716,226.592 106.872,226.647 107.203 M173.240 113.042 L 172.750 113.583 173.292 113.094 C 173.797 112.638,173.910 112.500,173.781 112.500 C 173.752 112.500,173.509 112.744,173.240 113.042 M171.204 116.259 C 170.693 116.617,170.740 116.929,171.350 117.233 C 171.788 117.452,171.836 117.454,171.663 117.246 C 171.551 117.111,171.356 117.000,171.230 117.000 C 170.872 117.000,170.959 116.569,171.375 116.279 C 171.581 116.135,171.710 116.014,171.662 116.009 C 171.614 116.004,171.407 116.117,171.204 116.259 M173.645 120.116 C 173.750 120.317,173.915 120.531,174.012 120.591 C 174.344 120.796,174.269 120.584,173.862 120.167 C 173.494 119.789,173.473 119.784,173.645 120.116 M239.292 120.284 C 239.498 120.324,239.835 120.324,240.042 120.284 C 240.248 120.245,240.079 120.212,239.667 120.212 C 239.254 120.212,239.085 120.245,239.292 120.284 M247.604 126.521 C 247.465 127.216,247.600 127.350,247.750 126.667 C 247.813 126.379,247.830 126.108,247.788 126.066 C 247.745 126.023,247.663 126.228,247.604 126.521 M252.935 137.163 C 253.129 137.241,253.333 137.424,253.388 137.569 C 253.444 137.715,253.566 137.833,253.660 137.833 C 253.754 137.833,253.668 137.646,253.469 137.417 C 253.270 137.188,252.989 137.005,252.845 137.011 C 252.669 137.018,252.698 137.068,252.935 137.163 M256.357 138.339 C 255.840 138.769,256.073 138.764,256.621 138.333 C 256.854 138.150,256.979 138.002,256.897 138.006 C 256.816 138.009,256.573 138.159,256.357 138.339 M130.833 138.639 C 130.833 138.746,130.665 138.842,130.458 138.853 C 130.150 138.869,130.138 138.886,130.393 138.952 C 130.725 139.037,131.135 138.746,130.947 138.558 C 130.885 138.496,130.833 138.532,130.833 138.639 M263.460 141.951 C 263.668 141.991,263.968 141.990,264.127 141.948 C 264.286 141.906,264.117 141.874,263.750 141.875 C 263.383 141.877,263.253 141.911,263.460 141.951 M270.813 142.380 C 270.894 142.460,271.175 142.499,271.438 142.466 C 271.879 142.411,271.867 142.400,271.292 142.320 C 270.934 142.271,270.729 142.296,270.813 142.380 M134.794 142.618 C 135.001 142.658,135.301 142.656,135.460 142.615 C 135.620 142.573,135.450 142.540,135.083 142.542 C 134.717 142.544,134.586 142.578,134.794 142.618 M269.941 160.666 C 270.138 160.745,270.350 160.891,270.411 160.991 C 270.545 161.207,270.834 161.063,270.831 160.782 C 270.829 160.642,270.788 160.647,270.691 160.800 C 270.582 160.972,270.511 160.964,270.340 160.758 C 270.222 160.616,270.004 160.505,269.855 160.511 C 269.662 160.518,269.688 160.563,269.941 160.666 M146.705 163.833 C 146.705 164.154,146.740 164.285,146.782 164.125 C 146.823 163.965,146.823 163.702,146.782 163.542 C 146.740 163.381,146.705 163.512,146.705 163.833 M150.167 173.250 C 150.478 173.571,150.770 173.833,150.815 173.833 C 150.861 173.833,150.644 173.571,150.333 173.250 C 150.022 172.929,149.730 172.667,149.685 172.667 C 149.639 172.667,149.856 172.929,150.167 173.250 M264.019 174.237 C 264.009 174.413,263.872 174.713,263.715 174.904 C 263.439 175.238,263.443 175.237,263.814 174.896 C 264.048 174.681,264.168 174.419,264.119 174.229 C 264.042 173.930,264.038 173.930,264.019 174.237 M256.193 177.654 C 256.179 177.967,256.038 178.380,255.881 178.570 C 255.599 178.912,255.600 178.912,255.977 178.566 C 256.268 178.298,256.342 178.083,256.289 177.650 L 256.220 177.083 256.193 177.654 M249.442 185.292 C 249.400 185.360,249.576 185.417,249.833 185.417 C 250.091 185.417,250.267 185.360,250.224 185.292 C 250.182 185.223,250.006 185.167,249.833 185.167 C 249.661 185.167,249.485 185.223,249.442 185.292 M244.139 189.625 C 243.700 190.100,243.373 190.765,243.669 190.582 C 243.759 190.526,243.833 190.395,243.833 190.291 C 243.833 190.187,244.035 189.891,244.281 189.634 C 244.527 189.377,244.692 189.167,244.646 189.167 C 244.600 189.167,244.372 189.373,244.139 189.625 M208.960 199.785 C 209.168 199.824,209.468 199.823,209.627 199.781 C 209.786 199.739,209.617 199.707,209.250 199.709 C 208.883 199.711,208.753 199.745,208.960 199.785 M237.609 202.458 C 237.567 202.527,237.743 202.583,238.000 202.583 C 238.257 202.583,238.433 202.527,238.391 202.458 C 238.348 202.390,238.173 202.333,238.000 202.333 C 237.827 202.333,237.652 202.390,237.609 202.458 M197.375 205.615 C 197.535 205.657,197.798 205.657,197.958 205.615 C 198.119 205.573,197.987 205.539,197.667 205.539 C 197.346 205.539,197.215 205.573,197.375 205.615 M195.181 207.230 L 194.779 207.750 195.255 207.297 C 195.518 207.047,195.699 206.814,195.658 206.777 C 195.617 206.740,195.402 206.944,195.181 207.230 M192.875 212.917 C 192.877 213.283,192.911 213.414,192.951 213.206 C 192.991 212.999,192.990 212.699,192.948 212.540 C 192.906 212.380,192.874 212.550,192.875 212.917 M182.883 218.000 C 182.883 218.504,182.915 218.710,182.953 218.458 C 182.991 218.206,182.991 217.794,182.953 217.542 C 182.915 217.290,182.883 217.496,182.883 218.000 M190.569 227.463 C 190.286 227.713,189.911 228.011,189.736 228.127 C 189.560 228.243,189.647 228.229,189.929 228.097 C 190.210 227.964,190.545 227.729,190.673 227.576 C 190.801 227.422,191.058 227.234,191.244 227.159 C 191.455 227.073,191.489 227.019,191.333 227.015 C 191.196 227.012,190.852 227.214,190.569 227.463 " stroke="none" fill="#8d7b59" fill-rule="evenodd"></path></g></svg>